<svg xmlns="http://www.w3.org/2000/svg" width="192" height="192" viewBox="0 0 512 512">
  <defs>
    <linearGradient id="g" x1="0" y1="0" x2="1" y2="1">
      <stop offset="0" stop-color="#7B2FF7"/>
      <stop offset="1" stop-color="#9D5CFF"/>
    </linearGradient>
  </defs>
  <rect width="192" height="192" rx="112" fill="#0F1115"/>
  <rect x="40" y="40" width="432" height="432" rx="88" fill="url(#g)"/>
  <g fill="none" stroke="#0F1115" stroke-width="26" stroke-linecap="round" stroke-linejoin="round">
    <path d="M150 210h212a24 24 0 0 1 24 24v78a24 24 0 0 1-24 24H150a24 24 0 0 1-24-24v-78a24 24 0 0 1 24-24Z"/>
    <path d="M126 234v-30a24 24 0 0 1 24-24h176"/>
  </g>
  <circle cx="322" cy="273" r="20" fill="#0F1115"/>
</svg>
